{
    "asset" : {
        "generator" : "Khronos glTF Blender I/O v1.3.48",
        "version" : "2.0"
    },
    "scene" : 0,
    "scenes" : [
        {
            "name" : "Scene",
            "nodes" : [
                0
            ]
        }
    ],
    "nodes" : [
        {
            "mesh" : 0,
            "name" : "Curve.003",
            "scale" : [
                50,
                50,
                50
            ]
        }
    ],
    "materials" : [
        {
            "doubleSided" : true,
            "emissiveFactor" : [
                0,
                0,
                0
            ],
            "name" : "SVGMat.003",
            "pbrMetallicRoughness" : {
                "baseColorFactor" : [
                    0.17464745044708252,
                    0.5028865337371826,
                    0.8387992978096008,
                    1
                ],
                "metallicFactor" : 0.5,
                "roughnessFactor" : 0.5
            }
        }
    ],
    "meshes" : [
        {
            "name" : "Curve.006",
            "primitives" : [
                {
                    "attributes" : {
                        "POSITION" : 0,
                        "NORMAL" : 1,
                        "TEXCOORD_0" : 2
                    },
                    "indices" : 3,
                    "material" : 0
                }
            ]
        }
    ],
    "accessors" : [
        {
            "bufferView" : 0,
            "componentType" : 5126,
            "count" : 5494,
            "max" : [
                0.056732937693595886,
                0.003000000026077032,
                -1.5240493667079136e-07
            ],
            "min" : [
                1.5937384887365624e-06,
                -0.003000000026077032,
                -0.056726813316345215
            ],
            "type" : "VEC3"
        },
        {
            "bufferView" : 1,
            "componentType" : 5126,
            "count" : 5494,
            "type" : "VEC3"
        },
        {
            "bufferView" : 2,
            "componentType" : 5126,
            "count" : 5494,
            "type" : "VEC2"
        },
        {
            "bufferView" : 3,
            "componentType" : 5123,
            "count" : 9948,
            "type" : "SCALAR"
        }
    ],
    "bufferViews" : [
        {
            "buffer" : 0,
            "byteLength" : 65928,
            "byteOffset" : 0
        },
        {
            "buffer" : 0,
            "byteLength" : 65928,
            "byteOffset" : 65928
        },
        {
            "buffer" : 0,
            "byteLength" : 43952,
            "byteOffset" : 131856
        },
        {
            "buffer" : 0,
            "byteLength" : 19896,
            "byteOffset" : 175808
        }
    ],
    "buffers" : [
        {
            "byteLength" : 195704,
            "uri" : "data:application/octet-stream;base64,"
        }
    ]
}
